# xmcd CD database file
#
# Track frame offsets:
#	150
#	16596
#	32315
#	46027
#	59442
#	76128
#	91045
#	108338
#	129123
#	142695
#	157574
#	173354
#	192216
#
# Disc length: 2884 seconds
#
# Revision: 1
# Processed by: cddbd v1.5.1PL0 Copyright (c) Steve Scherf et al.
# Submitted via: CDex 1.51
#
DISCID=750b420d
DTITLE=Janiva Magness - Bury Him At The Crossroads
DYEAR=2004
DGENRE=Blues
TTITLE0=A Woman Knows
TTITLE1=The Whale Has Swallowed Me
TTITLE2=Everything Gonna Be Alright
TTITLE3=Lost And Lookin'
TTITLE4=Wasn't That Enough
TTITLE5=The Soul Of A Man
TTITLE6=That's No Way To Get Along
TTITLE7=Bury Him At The Crossroads
TTITLE8=One More Heartache
TTITLE9=I'm Leaving You
TTITLE10=Less And Less Of You
TTITLE11=Ain't Lost Nothing
TTITLE12=Eat The Lunch You Brought
EXTD=Bluesfestradio.com YEAR: 2004
EXTT0=
EXTT1=
EXTT2=
EXTT3=
EXTT4=
EXTT5=
EXTT6=
EXTT7=
EXTT8=
EXTT9=
EXTT10=
EXTT11=
EXTT12=
PLAYORDER=
